<?xml version="1.0" encoding="utf-8"?>
<!-- Generator: Adobe Illustrator 27.7.0, SVG Export Plug-In . SVG Version: 6.00 Build 0)  -->
<svg version="1.1" id="Layer_1" xmlns="http://www.w3.org/2000/svg" xmlns:xlink="http://www.w3.org/1999/xlink" x="0px" y="0px"
	 viewBox="0 0 256 256" style="enable-background:new 0 0 256 256;" xml:space="preserve">
<style type="text/css">
	.st0{clip-path:url(#SVGID_00000124877700629892355710000011883423390056673725_);}
	.st1{fill:#FFFFFF;}
	.st2{fill:none;}
</style>
<rect width="256" height="256"/>
<g>
	<defs>
		<rect id="SVGID_1_" width="256" height="256"/>
	</defs>
	<clipPath id="SVGID_00000128481677059393711060000001660903969810266047_">
		<use xlink:href="#SVGID_1_"  style="overflow:visible;"/>
	</clipPath>
	<g style="clip-path:url(#SVGID_00000128481677059393711060000001660903969810266047_);">
		<path class="st1" d="M256,127.6h-51.8V256H154V127.6H95.1V88.1H256"/>
		<path class="st1" d="M0,39.3C6.8,24.4,13.5,10.9,21.2,0h112.7c12.8,15.1,15.4,35,7.5,59.7c-1.7,5.7-3.3,11.3-5.8,16.6L96.2,60.2
			c3.9-14.4,15.9-39.5-3.8-47.6C61-0.3,48.2,38.2,41.4,54.7L17,114.1c-7.3,17.7-17.7,47.1,9.7,58.3c22,9,33.9-27.4,40.4-40.8
			l40.2,16.5c-1.9,3.9-4,8-5.9,11.9c-18,38.3-43.5,62.9-88,44.6c-4.9-2-9.4-4.1-13.5-6.4"/>
		<line class="st2" x1="21.2" y1="0" x2="14.2" y2="0"/>
		<line class="st2" x1="139.6" y1="0" x2="133.9" y2="0"/>
	</g>
</g>
</svg>
